<svg xmlns="http://www.w3.org/2000/svg" width="48" height="48" viewBox="0 0 48 48">
  <rect width="48" height="48" rx="10" fill="#92400E"/>
  <rect x="1" y="1" width="46" height="46" rx="9" fill="url(#g)" stroke="none"/>
  <!-- Plane -->
  <path d="M34 20v-1.5l-6-3.75V10.5c0-.62-.5-1.13-1.13-1.13s-1.12.5-1.12 1.13v4.25l-6 3.75V20l6-1.88V22.5l-1.5 1.13V25l2.63-.75L29.5 25v-1.37L28 22.5v-4.38L34 20z" fill="#FBBF24"/>
  <!-- Crescent -->
  <path d="M18 32a7 7 0 1 1 0-8.5 5.5 5.5 0 1 0 0 8.5z" fill="#FBBF24" opacity="0.7"/>
  <defs>
    <linearGradient id="g" x1="0" y1="0" x2="48" y2="48" gradientUnits="userSpaceOnUse">
      <stop stop-color="#92400E"/>
      <stop offset="1" stop-color="#78350F"/>
    </linearGradient>
  </defs>
</svg>
