<svg xmlns="http://www.w3.org/2000/svg" width="48" height="48" viewBox="0 0 512 512">
  <defs>
    <linearGradient id="bg" x1="0" y1="0" x2="512" y2="512" gradientUnits="userSpaceOnUse">
      <stop stop-color="#78350F"/>
      <stop offset="1" stop-color="#451A03"/>
    </linearGradient>
    <linearGradient id="gold" x1="100" y1="80" x2="400" y2="420" gradientUnits="userSpaceOnUse">
      <stop stop-color="#FDE68A"/>
      <stop offset="1" stop-color="#D97706"/>
    </linearGradient>
  </defs>
  <rect width="512" height="512" rx="112" fill="url(#bg)"/>
  <circle cx="200" cy="310" r="140" fill="url(#gold)" opacity="0.25"/>
  <circle cx="250" cy="280" r="130" fill="url(#bg)"/>
  <g transform="translate(256,230) rotate(-30) scale(7)">
    <path d="M21 16v-2l-8-5V3.5c0-.83-.67-1.5-1.5-1.5S10 2.67 10 3.5V9l-8 5v2l8-2.5V19l-2 1.5V22l3.5-1 3.5 1v-1.5L13 19v-5.5l8 2.5z" fill="url(#gold)"/>
  </g>
  <path d="M80 400 Q 256 120 432 280" fill="none" stroke="#FBBF24" stroke-opacity="0.35" stroke-width="5" stroke-linecap="round"/>
</svg>
